<?xml version="1.0" encoding="UTF-8" standalone="no"?>
<!-- Created with Inkscape (http://www.inkscape.org/) -->

<svg
   xmlns:dc="http://purl.org/dc/elements/1.1/"
   xmlns:cc="http://creativecommons.org/ns#"
   xmlns:rdf="http://www.w3.org/1999/02/22-rdf-syntax-ns#"
   xmlns:svg="http://www.w3.org/2000/svg"
   xmlns="http://www.w3.org/2000/svg"
   xmlns:sodipodi="http://sodipodi.sourceforge.net/DTD/sodipodi-0.dtd"
   xmlns:inkscape="http://www.inkscape.org/namespaces/inkscape"
   version="1.1"
   width="410.11249"
   height="166.125"
   id="svg2"
   xml:space="preserve"
   inkscape:version="0.48.2 r9819"
   sodipodi:docname="cunningham-car-centre-logo.svg"><sodipodi:namedview
     pagecolor="#ffffff"
     bordercolor="#666666"
     borderopacity="1"
     objecttolerance="10"
     gridtolerance="10"
     guidetolerance="10"
     inkscape:pageopacity="0"
     inkscape:pageshadow="2"
     inkscape:window-width="1280"
     inkscape:window-height="752"
     id="namedview3153"
     showgrid="false"
     inkscape:zoom="1.3801092"
     inkscape:cx="216.92184"
     inkscape:cy="83.0625"
     inkscape:window-x="0"
     inkscape:window-y="0"
     inkscape:window-maximized="1"
     inkscape:current-layer="g12" /><metadata
     id="metadata8"><rdf:RDF><cc:Work
         rdf:about=""><dc:format>image/svg+xml</dc:format><dc:type
           rdf:resource="http://purl.org/dc/dcmitype/StillImage" /><dc:title></dc:title></cc:Work></rdf:RDF></metadata><defs
     id="defs6" /><g
     transform="matrix(1.25,0,0,-1.25,0,166.125)"
     id="g10"><g
       transform="scale(0.1,0.1)"
       id="g12"><path
         d="m 566.215,1182.17 -149.57,146.79 -266.942,0 L 0,1182.18 0,525.898 l 90,42.606 0,575.876 96.465,94.58 193.39,0 96.36,-94.57 0,-210.628 90,-0.574 0,248.982"
         inkscape:connector-curvature="0"
         id="path14"
         style="fill:#bcc6cb;fill-opacity:1;fill-rule:nonzero;stroke:none" /><path
         d="m 0,525.898 174.707,-143.179 232.594,0 158.914,144.59 0,285.23 -90.414,0 0.414,-245.441 -103.731,-94.379 -165.609,0 L 90,568.504 0,525.898"
         inkscape:connector-curvature="0"
         id="path16"
         style="fill:#788388;fill-opacity:1;fill-rule:nonzero;stroke:none" /><path
         d="m 218.684,1166.46 0,-621.241 46.91,63.398 0,517.023 40,0 0,-192.374 48.121,0.496 0,232.698 -135.031,0"
         inkscape:connector-curvature="0"
         id="path18"
         style="fill:#006699;fill-opacity:1;fill-rule:nonzero;stroke:none" /><path
         d="m 218.684,545.219 135.031,0 -0.414,267.32 -47.707,0 0,-204.402 -40,0 -46.91,-62.918"
         inkscape:connector-curvature="0"
         id="path20"
         style="fill:#64b7db;fill-opacity:1;fill-rule:nonzero;stroke:none" /><path
         d="m 893.172,1136.7 -93.125,0 0,81.23 -41.25,0 0,-259.371 41.25,0 0,99.221 93.125,0 0,-117.159 -63.047,-60.183 -98.57,0 -68.383,60.183 0,295.259 62.59,60.18 104.363,0 63.047,-60.18 0,-99.18"
         inkscape:connector-curvature="0"
         id="path22"
         style="fill:#006699;fill-opacity:1;fill-rule:nonzero;stroke:none" /><path
         d="m 1162.65,940.621 -62.01,-60.183 -107.37,0 -63.747,60.183 0,355.439 95.627,0 0,-337.501 41.87,0 0,337.501 95.63,0 0,-355.439"
         inkscape:connector-curvature="0"
         id="path24"
         style="fill:#006699;fill-opacity:1;fill-rule:nonzero;stroke:none" /><path
         d="m 1438.68,880.438 -79.47,0 -61.88,202.302 -1.15,0 0,-202.302 -89.9,0 0,415.622 80.04,0 61.3,-199.99 1.16,0 0,199.99 89.9,0 0,-415.622"
         inkscape:connector-curvature="0"
         id="path26"
         style="fill:#006699;fill-opacity:1;fill-rule:nonzero;stroke:none" /><path
         d="m 1714.75,880.438 -79.45,0 -61.89,202.302 -1.16,0 0,-202.302 -89.89,0 0,415.622 80.03,0 61.31,-199.99 1.16,0 0,199.99 89.89,0 0,-415.622"
         inkscape:connector-curvature="0"
         id="path28"
         style="fill:#006699;fill-opacity:1;fill-rule:nonzero;stroke:none" /><path
         d="m 1762.76,880.438 95.625,0 0,415.621 -95.625,0 0,-415.621 z"
         inkscape:connector-curvature="0"
         id="path30"
         style="fill:#006699;fill-opacity:1;fill-rule:nonzero;stroke:none" /><path
         d="m 2139.31,880.438 -79.46,0 -61.88,202.302 -1.16,0 0,-202.302 -89.9,0 0,415.622 80.04,0 61.31,-199.99 1.15,0 0,199.99 89.9,0 0,-415.622"
         inkscape:connector-curvature="0"
         id="path32"
         style="fill:#006699;fill-opacity:1;fill-rule:nonzero;stroke:none" /><path
         d="m 2411.07,1140.22 -95.63,0 0,77.71 -44.37,0 0,-259.371 44.37,0 0,60.621 -23.94,0 0,78.13 119.57,0 0,-156.689 -63.18,-60.183 -105.8,0 -66.65,60.183 0,295.259 63.75,60.18 106.97,0 64.91,-60.18 0,-95.66"
         inkscape:connector-curvature="0"
         id="path34"
         style="fill:#006699;fill-opacity:1;fill-rule:nonzero;stroke:none" /><path
         d="m 2679.29,880.438 -95.62,0 0,168.742 -40,0 0,-168.742 -95.63,0 0,415.622 95.63,0 0,-168.75 40,0 0,168.75 95.62,0 0,-415.622"
         inkscape:connector-curvature="0"
         id="path36"
         style="fill:#006699;fill-opacity:1;fill-rule:nonzero;stroke:none" /><path
         d="m 2843.15,1035.43 -41.76,0 14.5,172.5 9.28,0 17.98,-172.5 z m 46.98,260.63 -138.62,0 -58.58,-415.622 93.38,0 8.12,76.871 55.68,0 8.12,-76.871 93.96,0 -62.06,415.622"
         inkscape:connector-curvature="0"
         id="path38"
         style="fill:#006699;fill-opacity:1;fill-rule:nonzero;stroke:none" /><path
         d="m 3265.4,880.438 -87.5,0 0,263.742 -4.07,0 -40.08,-263.742 -35.45,0 -40.08,263.742 -4.07,0 0,-263.742 -87.5,0 0,415.622 112.48,0 33.7,-201.15 8.72,0 31.37,201.15 112.48,0 0,-415.622"
         inkscape:connector-curvature="0"
         id="path40"
         style="fill:#006699;fill-opacity:1;fill-rule:nonzero;stroke:none" /><path
         d="m 893.172,653.145 -93.125,0 0,81.242 -41.25,0 0,-259.375 41.25,0 0,99.222 93.125,0 0,-117.164 -63.047,-60.183 -98.57,0 -68.383,60.183 0,295.254 62.59,60.188 104.363,0 63.047,-60.188 0,-99.179"
         inkscape:connector-curvature="0"
         id="path42"
         style="fill:#788388;fill-opacity:1;fill-rule:nonzero;stroke:none" /><path
         d="m 1048.2,551.887 -41.76,0 14.5,172.5 9.28,0 17.98,-172.5 z m 46.98,260.625 -138.621,0 -58.582,-415.625 93.382,0 8.118,76.875 55.683,0 8.12,-76.875 93.96,0 -62.06,415.625"
         inkscape:connector-curvature="0"
         id="path44"
         style="fill:#788388;fill-opacity:1;fill-rule:nonzero;stroke:none" /><path
         d="m 1308.57,734.387 0,-93.125 -40,0 0,93.125 40,0 z m 92.5,17.937 -64.17,60.188 -163.95,0 0,-415.625 95.62,0 0,166.25 40,0 0,-166.25 92.5,0 0,166.25 -47.98,40.508 47.98,39.929 0,108.75"
         inkscape:connector-curvature="0"
         id="path46"
         style="fill:#788388;fill-opacity:1;fill-rule:nonzero;stroke:none" /><path
         d="m 1703.38,653.145 -93.12,0 0,81.242 -41.25,0 0,-259.375 41.25,0 0,99.222 93.12,0 0,-117.164 -63.04,-60.183 -98.57,0 -68.39,60.183 0,295.254 62.59,60.188 104.37,0 63.04,-60.188 0,-99.179"
         inkscape:connector-curvature="0"
         id="path48"
         style="fill:#788388;fill-opacity:1;fill-rule:nonzero;stroke:none" /><path
         d="m 1908.48,734.387 -80.62,0 0,-78.125 67.86,0 0,-78.125 -67.86,0 0,-103.125 82.94,0 0,-78.125 -178.57,0 0,415.625 176.25,0 0,-78.125"
         inkscape:connector-curvature="0"
         id="path50"
         style="fill:#788388;fill-opacity:1;fill-rule:nonzero;stroke:none" /><path
         d="m 2171.78,396.887 -79.46,0 -61.88,202.304 -1.16,0 0,-202.304 -89.9,0 0,415.625 80.04,0 61.31,-199.992 1.15,0 0,199.992 89.9,0 0,-415.625"
         inkscape:connector-curvature="0"
         id="path52"
         style="fill:#788388;fill-opacity:1;fill-rule:nonzero;stroke:none" /><path
         d="m 2386.5,734.387 -53.94,0 0,-337.5 -95.63,0 0,337.5 -53.93,0 0,78.125 203.5,0 0,-78.125"
         inkscape:connector-curvature="0"
         id="path54"
         style="fill:#788388;fill-opacity:1;fill-rule:nonzero;stroke:none" /><path
         d="m 2537.43,734.387 0,-93.125 -40,0 0,93.125 40,0 z m 92.5,17.937 -64.17,60.188 -163.96,0 0,-415.625 95.63,0 0,166.25 40,0 0,-166.25 92.5,0 0,166.25 -47.98,40.508 47.98,39.929 0,108.75"
         inkscape:connector-curvature="0"
         id="path56"
         style="fill:#788388;fill-opacity:1;fill-rule:nonzero;stroke:none" /><path
         d="m 2850.38,734.387 -80.62,0 0,-78.125 67.86,0 0,-78.125 -67.86,0 0,-103.125 82.94,0 0,-78.125 -178.57,0 0,415.625 176.25,0 0,-78.125"
         inkscape:connector-curvature="0"
         id="path58"
         style="fill:#788388;fill-opacity:1;fill-rule:nonzero;stroke:none" /><path
         d="m 3025.12,763.301 -37.09,0 0,-40.934 31.01,0 0,-41.25 -31.01,0 0,-53.437 39.22,0 0,-41.25 -93.28,0 0,218.121 91.15,0 0,-41.25"
         inkscape:connector-curvature="0"
         id="path60"
         style="fill:#bcc6cb;fill-opacity:1;fill-rule:nonzero;stroke:none" /><path
         d="m 3160.29,733.582 -52.58,0 0,29.719 -10.94,0 0,-44.121 32.52,-3.055 34.04,-30.75 0,-68.613 -31.61,-30.332 -58.64,0 -31.9,30.332 0,40.355 55.59,0 0,-29.437 10.94,0 0,44.914 -30.69,2.734 -34.31,30.445 0,68.145 30.37,30.633 56.21,0 31,-30.633 0,-40.336"
         inkscape:connector-curvature="0"
         id="path62"
         style="fill:#bcc6cb;fill-opacity:1;fill-rule:nonzero;stroke:none" /><path
         d="m 3280.86,763.301 -25.23,0 0,-176.871 -55.63,0 0,176.871 -26.75,0 0,41.25 107.61,0 0,-41.25"
         inkscape:connector-curvature="0"
         id="path64"
         style="fill:#bcc6cb;fill-opacity:1;fill-rule:nonzero;stroke:none" /><path
         d="m 2983.97,392.93 -38.06,0 0,120.652 -10.41,0 0,20.242 28.71,8.168 19.76,0 0,-149.062"
         inkscape:connector-curvature="0"
         id="path66"
         style="fill:#bcc6cb;fill-opacity:1;fill-rule:nonzero;stroke:none" /><path
         d="m 3043.93,479.777 -7.53,0 0,33.805 7.53,0 0,-33.805 z m 38.07,41.11 -21.85,21.074 -40.03,0 -20.6,-21.074 0,-53.215 18.55,-16.274 25.86,0 0,-30.062 -7.53,0 0,19.352 -36.88,0 0,-26.864 20.6,-20.867 40.03,0 21.85,20.867 0,107.063"
         inkscape:connector-curvature="0"
         id="path68"
         style="fill:#bcc6cb;fill-opacity:1;fill-rule:nonzero;stroke:none" /><path
         d="m 3141.77,481.961 -7.19,0 0,31.621 7.19,0 0,-31.621 z m 34.68,38.926 -22.01,21.074 -34.61,0 -19.94,-21.074 0,-37.684 14.9,-13.762 -17.4,-14.605 0,-41.012 21.34,-20.867 39.72,0 20.5,20.867 0,41.012 -17.87,14.605 15.37,13.762 0,37.684 z m -34.37,-99.551 -7.81,0 0,32.246 7.81,0 0,-32.246"
         inkscape:connector-curvature="0"
         id="path70"
         style="fill:#bcc6cb;fill-opacity:1;fill-rule:nonzero;stroke:none" /><path
         d="m 3272.96,485.066 -18.85,-16.668 18.85,-16.05 0,-38.524 -21.34,-20.867 -39.19,0 -20.72,20.867 0,27.774 36.88,0 0,-20.262 7.5,0 0,32.871 -15.17,0 0,28.379 15.17,0 0,30.996 -7.5,0 0,-18.801 -35.84,0 0,26.106 19.68,21.074 39.19,0 21.34,-21.074 0,-35.821"
         inkscape:connector-curvature="0"
         id="path72"
         style="fill:#bcc6cb;fill-opacity:1;fill-rule:nonzero;stroke:none" /><path
         d="m 665.918,183.836 c 0,0 -23.039,-3.457 -37.012,-19.145 -13.976,-15.687 -21.953,-30.125 -19.992,-41.132 1.961,-11.004 5.625,-18.985 17.566,-22.969 14.817,-4.9377 33.79,-0.6369 47.086,6.961 13.297,7.597 6.848,17.414 6.848,17.414 0,0 -40.566,-6.192 -46.262,-2.391 -1.09,1.969 -0.937,10.543 9.262,20.031 9.301,8.657 31.836,22.461 35.883,22.122 4.043,-0.336 10.812,-5.602 13.789,-4.473 2.976,1.129 4.156,9.238 3.574,11.23 -0.586,1.993 -4.918,9.375 -12.066,11.602 -7.145,2.23 -18.676,0.75 -18.676,0.75"
         inkscape:connector-curvature="0"
         id="path74"
         style="fill:#006699;fill-opacity:1;fill-rule:nonzero;stroke:none" /><path
         d="m 721.453,168.969 c -10.398,-4.457 -17.113,-12.793 -15.801,-20.297 1.313,-7.508 4.344,-19.984 14.649,-25.61 10.308,-5.624 25.125,-10.562 40.722,-9.929 15.594,0.637 25.594,2.555 29.957,6.765 4.368,4.207 7.661,9.887 5.086,11.293 -2.578,1.407 -52.527,2.899 -61.953,11.582 -4.754,5.352 23.297,9.52 26.676,13.184 1.93,2.094 2.281,6.691 1.098,10.125 -1.715,4.969 -14.375,6.469 -20.895,5.699 -6.519,-0.769 -19.539,-2.812 -19.539,-2.812"
         inkscape:connector-curvature="0"
         id="path76"
         style="fill:#006699;fill-opacity:1;fill-rule:nonzero;stroke:none" /><path
         d="m 598.375,153.367 c -2.555,0.903 -15.617,-0.133 -26.223,0.442 -10.605,0.574 -17.308,4.332 -17.308,4.332 0,0 5.379,16.347 9.394,29.109 4.016,12.762 6.305,18.398 16.266,46.016 9.957,27.617 14.066,50.464 12.148,60.464 -1.922,10 -10.257,16.715 -15.332,17.516 0,0 -7.547,-0.308 -8.992,-1.879 -1.449,-1.57 -13.492,-15.164 -22.098,-26.601 -8.601,-11.438 -27.699,-37.414 -29.128,-39.485 -1.426,-2.074 -3.961,-1.676 -5.954,-2.261 -1.992,-0.586 -4.281,-6.223 -5.523,-12.825 -1.242,-6.601 -16.359,-31.406 -22.387,-44.25 -6.027,-12.843 -27.078,-65.101 -27.476,-67.64 -0.403,-2.535 -1.16,-8.614 1.582,-14.043 2.742,-5.4339 13.789,-4.4808 16.683,-1.336 2.895,3.14 29.129,64.179 29.129,64.179 0,0 7.414,-8.769 11.645,-13.636 4.23,-4.867 11.539,-11.121 11.539,-11.121 0,0 -0.379,-3.039 -1.266,-6.098 -0.879,-3.059 -2.043,-11.672 -3.625,-22.32 -1.578,-10.649 -9.269,-56.8167 -11.84,-68.0081 -2.566,-11.1953 -7.769,-22.2852 -4.402,-27.8985 3.242,-5.4101 15.953,4.1797 20.492,16.4571 3.207,8.6836 8.789,31.6054 12.156,47.8672 3.372,16.2617 11.071,49.8363 12.016,51.3863 0.945,1.551 3.524,0.145 8.113,-1.179 4.59,-1.328 16.723,-2.344 32.68,1.836 15.953,4.175 13.215,9.609 14.621,12.187 1.406,2.574 -4.351,7.883 -6.91,8.789 z m -55.766,51.395 c -3.543,-11.989 -9.996,-32.914 -9.996,-32.914 0,0 -4.586,7.375 -8.742,10.48 -4.156,3.106 -10.226,3.613 -10.226,3.613 0,0 8.632,16.981 16.386,30.653 7.758,13.672 28.317,40.965 28.317,40.965 0,0 0.32,-1.75 -0.09,-4.036 -0.41,-2.285 -12.106,-36.777 -15.649,-48.761"
         inkscape:connector-curvature="0"
         id="path78"
         style="fill:#006699;fill-opacity:1;fill-rule:nonzero;stroke:none" /><path
         d="m 832.461,171.73 c -5.516,-0.726 -10.383,-4.957 -9.551,-12.988 0.832,-8.027 1.887,-21.59 7.668,-27.402 5.781,-5.809 15.668,-13.473 28.391,-16.481 12.719,-3.007 24.394,-5.05 32.195,1.313 7.805,6.367 9.148,10.453 5.965,14.355 -3.18,3.903 0.32,4.547 -6.684,3.254 -7,-1.293 -15.113,-0.113 -22.3,3.121 -7.184,3.235 -17.833,4.817 -19.547,9.786 -1.715,4.972 -1.723,17.57 -4.868,20.464 -3.14,2.895 -11.269,4.578 -11.269,4.578"
         inkscape:connector-curvature="0"
         id="path80"
         style="fill:#006699;fill-opacity:1;fill-rule:nonzero;stroke:none" /><path
         d="m 1008.93,256.031 c -3.65,2.875 -9.852,6.653 -15.785,3.891 -5.934,-2.762 -10.25,-20.574 -12.918,-29.25 -2.668,-8.676 -9.387,-41.707 -10.547,-50.32 -1.16,-8.614 -1.59,-22.743 -3.543,-24.332 -1.949,-1.594 -4.414,9.394 -12.692,14.597 -8.273,5.207 -24.453,6.563 -24.453,6.563 -2.855,-4.149 -5.269,-6.766 -7.699,-8.883 -2.438,-2.113 -5.395,-3.746 -6.758,-7.328 -1.367,-3.582 -7.465,-27.012 -4.242,-31.922 3.223,-4.906 9.293,-17.762 26.519,-20.082 17.231,-2.32 30.063,4.25 30.063,4.25 l 11.457,-9.11 c 0,0 4.047,-0.335 5.957,2.262 1.91,2.594 3.223,19.781 4.887,28.418 1.664,8.633 7.015,38.082 8.597,48.727 1.579,10.648 14.187,47.445 15.407,54.55 1.23,7.106 -0.61,15.09 -4.25,17.969 z M 949.688,139.223 c -0.418,-2.035 -3.04,0.379 -5.133,2.308 -2.094,1.93 -1.735,5.473 -1.735,5.473 0,0 2.516,0.101 4.067,-0.84 1.551,-0.945 3.222,-4.91 2.801,-6.941"
         inkscape:connector-curvature="0"
         id="path82"
         style="fill:#006699;fill-opacity:1;fill-rule:nonzero;stroke:none" /><path
         d="m 850.949,200.203 c 0,0 2.403,-9.476 7.516,-11.285 5.113,-1.805 8.277,-5.207 12.238,-3.531 3.965,1.672 3.719,7.711 3.531,12.238 -0.183,4.527 -1.074,14.066 -6.187,15.871 -5.113,1.809 -10.145,1.606 -13.543,-1.558 -3.399,-3.165 -3.555,-11.735 -3.555,-11.735"
         inkscape:connector-curvature="0"
         id="path84"
         style="fill:#006699;fill-opacity:1;fill-rule:nonzero;stroke:none" /><path
         d="m 1032.21,154.68 c 0,0 -4.09,1.347 -7.05,-0.285 -2.95,-1.633 -7.72,-8.379 -7.05,-12.383 0.67,-4.004 0.91,-10.043 8.1,-13.278 7.19,-3.234 13.29,-4.496 16.31,-4.371 3.01,0.121 6.03,0.242 6.03,0.242 0,0 8.36,-7.214 19.41,-6.261 11.04,0.957 12.03,1.5 18.83,7.824 6.79,6.324 10.19,9.484 10.19,9.484 0,0 14.75,-15.523 22.27,-14.711 7.53,0.809 22.93,18.571 25.95,18.696 3.01,0.121 14.03,-10.516 17.62,-11.879 3.58,-1.367 7.24,-4.746 10.77,-4.602 3.52,0.145 4.04,-0.34 4.04,-0.34 l 3.85,-7.906 3.97,1.676 c 0,0 1.04,-0.965 5.07,-0.801 4.02,0.164 8.75,7.914 8.75,7.914 0,0 6.83,5.317 10.99,14.559 4.16,9.242 19.67,49.18 19.67,49.18 0,0 1.01,-12.559 7.68,-15.309 6.66,-2.754 10.66,-2.086 17.66,-0.793 7.01,1.297 27.57,3.644 32.48,6.871 4.91,3.223 8.27,7.391 7.47,14.414 -0.79,7.02 -5.31,6.836 -12.42,8.059 -7.1,1.222 -25.7,-0.039 -36.73,-1.496 -11.02,-1.457 -13.92,-4.602 -13.92,-4.602 0,0 6.37,16.891 10.13,23.594 3.76,6.707 16.28,20.824 18.49,28.472 2.21,7.649 1.82,17.207 -3.92,22.012 -5.74,4.805 -12.26,4.035 -14.76,3.43 -2.49,-0.606 -21.47,-29.602 -27.96,-43.469 -6.49,-13.871 -18.07,-51.133 -19.31,-57.734 -1.24,-6.602 -2.86,-16.242 -6.32,-17.895 -3.46,-1.652 -12.36,-6.047 -16.48,-3.695 -4.13,2.351 -13.88,19.086 -22.52,20.75 -8.63,1.664 -16.1,-0.656 -22.45,-5.449 -6.36,-4.797 -7.28,-6.848 -7.28,-6.848 0,0 -4.9,8.871 -8.55,11.746 -3.64,2.875 -11.27,4.578 -15.25,3.406 -3.99,-1.168 -16.33,-19.812 -16.33,-19.812 0,0 -2.85,20.543 -9.64,26.312 -6.79,5.774 -20.07,10.27 -28.38,3.883 -11.76,-8.039 -9.41,-28.605 -9.41,-28.605"
         inkscape:connector-curvature="0"
         id="path86"
         style="fill:#006699;fill-opacity:1;fill-rule:nonzero;stroke:none" /><path
         d="m 1476.16,216.629 c 21.18,24.547 46.24,64.879 49.5,83.656 3.27,18.777 2.59,35.383 -6.31,43.586 -8.9,8.203 -10.53,11.16 -16.95,7.875 -6.42,-3.285 -28.24,-11.734 -64.08,-72.156 -35.83,-60.422 -63.39,-126.047 -67.61,-133.781 -4.22,-7.731 -9.32,-18.52 -9.32,-18.52 0,0 2.1,-14.531 3.65,-15.473 1.55,-0.945 5.21,-4.324 11.19,-2.57 5.98,1.758 29.06,28.902 32.84,35.106 3.77,6.199 13.06,25.726 15.57,25.828 2.52,0.105 16.88,-18.461 23.18,-24.754 6.31,-6.293 33.21,-23.336 47.34,-23.77 14.13,-0.429 23.29,9.516 23.29,9.516 0,0 -0.29,7.047 -3.47,10.945 -3.18,3.903 -6.78,5.77 -6.78,5.77 0,0 -5.41,-3.242 -10.51,-1.938 -5.09,1.305 -23.89,5.071 -36.05,19.192 -12.13,14.07 -16.52,22.004 -16.52,22.004 0,0 9.87,4.937 31.04,29.484 z m -13.32,30.199 c -0.71,5.008 -7.39,8.262 -7.39,8.262 0,0 9.86,17.539 17.4,30.445 7.54,12.903 25.11,26.723 25.11,26.723 0,0 -7.44,-27.516 -17.37,-43.543 -9.93,-16.027 -17.04,-26.899 -17.75,-21.887"
         inkscape:connector-curvature="0"
         id="path88"
         style="fill:#006699;fill-opacity:1;fill-rule:nonzero;stroke:none" /><path
         d="m 1718.04,216.918 c -4.9,8.871 -9.33,18.77 -21.39,17.773 -12.05,-0.992 -29.46,-18.839 -29.46,-18.839 0,0 -10.65,1.582 -13.59,-0.551 -2.93,-2.137 -14.18,-35.352 -22.53,-40.731 -8.34,-5.382 -21.36,-7.425 -31.45,-7.332 -10.08,0.094 -7.12,1.727 -7.12,1.727 0,0 20.76,9.918 27.71,24.816 6.95,14.895 -12.56,36.274 -21.64,36.407 -9.07,0.132 -30.5,-5.778 -39.17,-15.708 -8.67,-9.929 -8.29,-31.582 -8.29,-31.582 0,0 -1.88,-3.101 -4.52,-0.183 -2.64,2.914 -8.44,9.23 -12.85,6.027 -4.4,-3.203 -9.51,-13.996 -4.63,-22.363 4.88,-8.367 10.11,-13.191 18.65,-12.34 8.53,0.852 13.5,2.566 13.5,2.566 0,0 14.6,-12.003 24.76,-14.109 10.17,-2.105 28.24,-0.359 28.24,-0.359 0,0 -30.54,-91.4495 -32.33,-97.0667 -1.79,-5.6133 -2.3,-17.7305 -0.66,-20.6875 1.62,-2.957 11.59,-0.0312 12.49,2.5234 0.9,2.5586 11.78,20.1368 13.6,24.7461 1.83,4.6094 7.23,20.4493 27.71,62.1057 20.47,41.652 41.32,74.25 41.32,74.25 0,0 9.59,11.98 11.18,10.031 1.59,-1.953 -7.82,-18.461 -11.24,-21.121 -3.42,-2.656 -6.27,-6.805 -6.27,-6.805 0,0 -2.49,-13.203 1.71,-17.066 4.18,-3.859 7.3,-6.25 14.77,-3.93 7.46,2.317 19.47,16.918 23.64,25.656 4.18,8.735 12.76,33.274 7.86,42.145 z m -132.72,-20.027 c -2,-0.586 -6.48,-1.774 -6.48,-1.774 0,0 2.28,5.637 5.26,6.766 2.98,1.129 6.99,1.797 6.99,1.797 0,0 -3.78,-6.203 -5.77,-6.789"
         inkscape:connector-curvature="0"
         id="path90"
         style="fill:#006699;fill-opacity:1;fill-rule:nonzero;stroke:none" /><path
         d="m 1985.85,248.504 c -10.54,-0.938 -26.61,-14.692 -34.37,-22.063 -7.77,-7.375 -22.73,-23.605 -22.73,-23.605 0,0 -5.2,8.086 -10.99,10.133 -12.78,4.519 -18.76,2.761 -30.8,-10.828 -12.05,-13.594 -18.76,-21.934 -18.76,-21.934 0,0 -3.73,4.887 -7.89,20.34 -1.58,5.875 -11.5,10.117 -18.4,6.305 -6.89,-3.809 -9.38,-17.012 -14.71,-22.266 -5.33,-5.258 -9.59,-11.984 -14.99,-3.133 -5.4,8.852 -4.42,21.992 -4.42,21.992 0,0 -0.25,6.035 -4.94,9.879 -4.69,3.84 -9.66,2.125 -9.66,2.125 0,0 -4.88,8.367 -8.63,13.758 -3.75,5.391 -10.89,7.617 -10.89,7.617 -5.54,-0.226 -22.96,-5.472 -26.63,-14.187 -3.68,-8.715 -8.74,-20.512 -7.81,-31.059 0.94,-10.543 6.52,-23.922 9.14,-26.336 2.61,-2.414 12.94,-8.543 20.47,-7.73 7.53,0.808 21.25,10.441 24.3,9.558 3.06,-0.882 4.24,-4.867 6.81,-6.273 2.58,-1.406 13.41,-7.516 20.47,-7.735 7.06,-0.214 11.96,3.512 14.89,5.649 2.94,2.137 8.21,8.902 9.71,8.961 1.52,0.062 5.91,-8.828 9.49,-10.195 3.58,-1.364 8.28,-5.204 13.81,-4.981 5.54,0.227 7.57,-0.191 13.94,4.098 6.38,4.293 25.56,28.254 25.56,28.254 0,0 3.15,-15.493 4.8,-18.953 1.66,-3.461 6.03,-11.848 13.03,-10.555 7,1.293 13.74,9.125 21.86,20.039 8.12,10.914 21.05,27.57 30.85,34.519 9.79,6.95 19.59,13.903 21.39,19.016 1.81,5.109 -0.82,20.746 -13.9,19.59 z m -214.24,-47.543 c -1.83,-4.609 -6.89,-4.313 -6.89,-4.313 0,0 0.32,4.551 1.21,7.61 0.88,3.058 5.32,5.258 5.32,5.258 0,0 2.18,-3.942 0.36,-8.555"
         inkscape:connector-curvature="0"
         id="path92"
         style="fill:#006699;fill-opacity:1;fill-rule:nonzero;stroke:none" /><path
         d="m 1855.03,268.363 c 0,0 -7.26,-7.351 -6.53,-12.863 0.73,-5.516 0.99,-12.055 3.05,-12.98 2.05,-0.922 7.2,-3.735 12.24,-3.532 5.03,0.207 13.94,4.098 15.87,6.192 1.93,2.093 3.72,7.711 2.5,12.699 -1.21,4.992 -4.81,6.859 -7.89,8.246 -3.08,1.387 -11.19,2.566 -13.23,2.988 -2.03,0.422 -6.01,-0.75 -6.01,-0.75"
         inkscape:connector-curvature="0"
         id="path94"
         style="fill:#006699;fill-opacity:1;fill-rule:nonzero;stroke:none" /><path
         d="m 2246.21,339.246 c -3.73,4.887 -11.68,14.641 -42.77,10.852 -31.09,-3.786 -49.23,-40.809 -53.25,-53.571 -4.01,-12.761 -3.24,-43.976 -4.48,-63.175 -1.23,-19.2 -12.64,-23.696 -12.64,-23.696 0,0 -7.89,8.246 -12.54,11.078 -4.65,2.836 -11.1,12.653 -23.74,13.649 -12.64,0.996 -24.38,-20.145 -26.71,-24.778 -2.33,-4.628 -1.41,-14.671 8.22,-28.386 9.63,-13.719 37.46,-16.614 62.04,-1.5 24.58,15.109 28.98,30.91 30.64,64.238 1.66,33.328 1.27,42.887 13.59,62.035 12.33,19.149 24.04,16.098 24.04,16.098 0,0 0.27,-6.539 4.02,-11.93 3.75,-5.39 10.99,-10.133 25.04,-8.555 14.04,1.583 17.2,10.782 18.06,14.344 0.86,3.563 -5.79,18.41 -9.52,23.297 z M 2101.93,194.781 c -8.61,1.16 -9.28,5.164 -7.85,7.239 1.42,2.074 6.86,4.816 6.86,4.816 l 12.96,-9.047 c 0,0 -3.35,-4.168 -11.97,-3.008"
         inkscape:connector-curvature="0"
         id="path96"
         style="fill:#006699;fill-opacity:1;fill-rule:nonzero;stroke:none" /><path
         d="m 2233.77,261.133 c -5.51,-0.727 -18.5,-15.871 -23.24,-23.121 -4.74,-7.246 -28.1,-39.95 -51.64,-80.719 -23.53,-40.77 -45.09,-105.1446 -47.87,-111.3047 -2.77,-6.1602 -12.44,-40.82424 -13.26,-45.390644 -0.83,-4.570316 0.85,-8.531246 10.1,-0.597656 9.25,7.9375 21.32,33.1211 31.09,53.1719 9.76,20.0547 42.21,89.4061 64.65,120.0551 22.43,30.648 34.39,46.253 34.39,46.253 0,0 4.95,2.215 6.5,1.274 1.55,-0.945 -5.73,-7.793 -6.61,-10.856 -0.88,-3.058 -3.05,-11.714 1.66,-16.058 4.72,-4.34 10.96,-9.125 14.42,-7.473 3.46,1.653 17.03,14.805 17.03,14.805 0,0 10.21,-3.113 16.73,-2.344 6.52,0.77 30.32,10.309 32.39,8.883 2.07,-1.426 5.55,-12.375 7.05,-12.313 1.52,0.063 15.36,-5.925 19.43,-6.765 4.07,-0.84 16.22,-2.363 21.7,-0.625 5.47,1.734 14.74,9.164 14.74,9.164 l -1.78,6.48 c 0,0 2.37,3.625 -1.27,6.5 -3.64,2.875 -10.06,-0.41 -17.67,0.789 -7.61,1.204 -13.71,2.465 -16.31,4.375 -2.59,1.911 -1.65,3.461 -1.65,3.461 0,0 10.32,6.469 13.31,19.692 2.99,13.226 -1.61,27.148 -3.75,30.082 -2.13,2.937 -10.32,6.133 -12.34,6.051 -2.01,-0.082 -9.92,-3.934 -16.65,-11.766 -6.74,-7.836 -10.29,-19.57 -10.17,-22.59 0.13,-3.019 -0.78,-5.574 -0.78,-5.574 0,0 -6.4,-3.789 -17.38,-6.25 -10.99,-2.465 -13.52,-2.067 -13.52,-2.067 0,0 -0.81,7.528 -2.07,13.524 -1.25,5.996 -2.96,10.965 -10.67,14.683 -7.71,3.715 -22.66,-0.421 -22.66,-0.421 0,0 -4.72,4.343 -6.79,5.769 -2.08,1.43 -7.11,1.223 -7.11,1.223"
         inkscape:connector-curvature="0"
         id="path98"
         style="fill:#006699;fill-opacity:1;fill-rule:nonzero;stroke:none" /><path
         d="m 2434.37,248.148 c 5.11,-1.808 9,-10.718 6.21,-16.375 -2.79,-5.656 -6.8,-6.324 -9.78,-7.453 -2.98,-1.132 -7.4,-3.832 -7.4,-3.832 0,0 -3.9,-3.183 -3.34,-4.672 0.57,-1.488 11.28,-4.578 23.9,-5.07 12.61,-0.496 26.24,-0.945 26.24,-0.945 0,0 10.16,-2.106 11.77,-4.559 1.62,-2.457 -1.83,-4.613 -8.7,-8.926 -6.88,-4.308 -12.17,-10.57 -30.81,-10.828 -18.63,-0.258 -25.25,1.489 -34.51,6.153 -9.26,4.66 -15.65,12.964 -15.6,24.054 0.05,11.09 6.14,22.422 12.54,26.211 6.4,3.789 19.33,7.844 22.88,7.485 3.54,-0.36 6.6,-1.243 6.6,-1.243"
         inkscape:connector-curvature="0"
         id="path100"
         style="fill:#006699;fill-opacity:1;fill-rule:nonzero;stroke:none" /><path
         d="m 2489.15,239.297 c 4.95,2.219 12.1,-0.012 14.25,-3.449 2.16,-3.442 5.31,-18.934 12.52,-22.672 7.2,-3.738 15.8,-4.395 20.87,-5.196 5.07,-0.8 10.19,-2.609 10.37,-7.136 0.18,-4.528 -3.87,-16.285 -13.37,-18.184 -9.49,-1.898 -24.81,3.02 -30.53,7.324 -5.72,4.301 -16.86,17.957 -18.8,28.461 -1.94,10.504 -2.61,14.508 -0.19,17.125 2.41,2.618 4.88,3.727 4.88,3.727"
         inkscape:connector-curvature="0"
         id="path102"
         style="fill:#006699;fill-opacity:1;fill-rule:nonzero;stroke:none" /><path
         d="m 2510.85,291.141 c 7,1.293 13.72,-2.969 14.94,-7.957 1.21,-4.989 1.12,-15.071 -1.82,-17.207 -2.94,-2.137 -5.29,-6.262 -7.85,-5.36 -2.55,0.903 -4.67,3.336 -4.67,3.336 0,0 -2.97,-1.129 -5.05,0.297 -2.07,1.43 -4.36,10.684 -4.16,15.453 0.26,6.059 8.61,11.438 8.61,11.438"
         inkscape:connector-curvature="0"
         id="path104"
         style="fill:#006699;fill-opacity:1;fill-rule:nonzero;stroke:none" /><path
         d="m 2585.43,238.688 c 0,0 3.8,5.699 0.01,12.093 -3.79,6.399 -15.53,9.949 -23.98,7.086 -8.44,-2.863 -18.56,-14.363 -18.15,-24.426 0.41,-10.062 3.57,-25.554 12.84,-30.718 9.29,-5.164 15.45,-7.938 15.45,-7.938 0,0 13.44,4.078 15.33,7.176 1.88,3.101 3.31,5.176 3.31,5.176 0,0 15.32,-4.918 28.86,-3.36 13.54,1.563 23.88,7.528 23.88,7.528 l 9.78,-17.243 c 0,0 4.63,-2.328 6.76,-5.265 2.14,-2.938 8.7,-3.172 12.18,-2.024 3.48,1.149 4.78,6.243 4.68,8.758 -0.1,2.516 -0.7,5.012 -0.7,5.012 0,0 -11.99,9.59 -10.25,28.809 1.74,19.222 7.63,22.988 11.27,44.808 3.65,21.817 7.31,31.035 10.94,40.758 3.63,9.723 8.95,15.484 10.77,20.094 1.83,4.609 0.77,18.172 -7.95,21.847 -8.71,3.676 -20.92,-5.89 -35.44,-45.285 -14.52,-39.394 -12.01,-51.39 -12.69,-59.48 -0.68,-8.09 -2.59,-10.688 -2.59,-10.688 0,0 -4.74,-7.246 -10.7,-9.508 -5.95,-2.257 -20.48,-4.359 -31.21,-0.769 -10.73,3.594 -12.4,7.559 -12.4,7.559"
         inkscape:connector-curvature="0"
         id="path106"
         style="fill:#006699;fill-opacity:1;fill-rule:nonzero;stroke:none" /><path
         d="m 2715.63,246.516 c -7.99,-1.836 -11.44,-16.086 -2.78,-30.852 8.67,-14.766 23.42,-18.195 33.69,-22.816 10.26,-4.618 27.13,2.117 32.9,8.902 5.77,6.785 11.16,10.535 11.16,10.535 0,0 -0.98,-13.144 0.65,-16.101 1.64,-2.957 11,-10.133 15.46,-8.438 4.47,1.692 8.43,3.367 14.52,14.703 6.09,11.332 10.34,30.656 8.67,34.617 -1.67,3.965 -4.18,15.957 -9.83,18.75 -5.66,2.793 -10.73,3.594 -13.75,3.469 -3.02,-0.121 -12.44,-4.031 -16.8,-8.242 -4.36,-4.211 -14.15,-23.758 -18.53,-27.465 -4.39,-3.707 -4.22,-7.73 -14.37,-6.129 -10.14,1.602 -18.4,6.305 -21.6,10.711 -5.03,6.922 -4.04,12.434 -7.15,14.824 -3.12,2.395 -12.24,3.532 -12.24,3.532"
         inkscape:connector-curvature="0"
         id="path108"
         style="fill:#006699;fill-opacity:1;fill-rule:nonzero;stroke:none" /><path
         d="m 2907.27,307.875 c 4.51,11.516 -3.56,22.895 -9.7,24.551 -13.37,3.613 -14.68,-1.356 -21.89,-19.414 -10.24,-25.696 -23.14,-62.547 -23.14,-62.547 -4.59,-6.363 -8.04,-17.715 0.63,-32.481 8.66,-14.761 23.42,-18.195 33.68,-22.812 10.27,-4.621 24.51,3.14 30.27,9.926 5.77,6.785 15.68,14.246 15.68,14.246 0,0 -5.53,-28.192 -3.9,-31.153 1.64,-2.957 11,-10.132 15.46,-8.437 4.47,1.691 8.43,3.367 14.52,14.699 6.09,11.336 10.34,30.66 8.67,34.621 -1.67,3.965 -1.2,18.598 -6.86,21.391 -5.65,2.793 -10.73,3.594 -13.74,3.469 -3.02,-0.122 -15.83,-2.661 -20.2,-6.868 -4.36,-4.211 -14.48,-15.586 -18.86,-19.289 -4.39,-3.707 -8.81,-9.558 -18.96,-7.953 -10.14,1.598 -11.86,5.492 -13.59,10.656 -1.8,5.344 9.84,25.848 10.69,32.688 0.1,0.762 13.7,25.504 21.24,44.707"
         inkscape:connector-curvature="0"
         id="path110"
         style="fill:#006699;fill-opacity:1;fill-rule:nonzero;stroke:none" /><path
         d="m 2795.46,303.188 c -5.39,-3.743 -8.65,-10.43 -7.44,-15.418 1.21,-4.993 0.89,-9.54 5,-11.387 4.11,-1.848 16.28,-3.871 18.8,-3.77 2.52,0.102 4.43,2.699 6.94,2.805 2.52,0.102 6.42,3.285 5.79,6.281 -0.62,3 -0.81,7.528 -3.44,10.442 -2.65,2.918 -10.98,9.632 -15.09,11.48 -4.11,1.848 -10.56,-0.433 -10.56,-0.433"
         inkscape:connector-curvature="0"
         id="path112"
         style="fill:#006699;fill-opacity:1;fill-rule:nonzero;stroke:none" /><path
         d="m 2943.8,283.098 c 13.03,0.343 22.78,-2.473 28.65,-2.801 5.87,-0.328 10.78,-0.125 13.34,-2.668 2.56,-2.539 4.55,-9.641 2.64,-13.688 -1.92,-4.046 -3.15,-6.175 -7.25,-7.664 -4.1,-1.492 -9.36,-2.082 -15.39,-2.519 -6.03,-0.434 -14.02,0.941 -26.81,-0.715 -12.78,-1.656 -25.58,-7.656 -27.3,-7.16 -1.72,0.496 -10.66,2.023 -13.22,9.097 -2.55,7.079 -1.06,12.051 1.11,14.411 2.18,2.355 20.69,11.8 27.09,12.441 6.39,0.641 17.14,1.266 17.14,1.266"
         inkscape:connector-curvature="0"
         id="path114"
         style="fill:#006699;fill-opacity:1;fill-rule:nonzero;stroke:none" /></g></g></svg>