<?xml version="1.0" encoding="utf-8"?>
<!-- Generator: Adobe Illustrator 25.2.1, SVG Export Plug-In . SVG Version: 6.00 Build 0)  -->
<svg version="1.1"
	 id="svg2" inkscape:version="0.48.2 r9819" sodipodi:docname="cunningham-car-centre-logo.svg" xmlns:cc="http://creativecommons.org/ns#" xmlns:dc="http://purl.org/dc/elements/1.1/" xmlns:inkscape="http://www.inkscape.org/namespaces/inkscape" xmlns:rdf="http://www.w3.org/1999/02/22-rdf-syntax-ns#" xmlns:sodipodi="http://sodipodi.sourceforge.net/DTD/sodipodi-0.dtd" xmlns:svg="http://www.w3.org/2000/svg"
	 xmlns="http://www.w3.org/2000/svg" xmlns:xlink="http://www.w3.org/1999/xlink" x="0px" y="0px" viewBox="0 0 410.11 166.12"
	 style="enable-background:new 0 0 410.11 166.12;" xml:space="preserve">
<style type="text/css">
	.st0{fill:#BCC6CB;}
	.st1{fill:#788388;}
	.st2{fill:#006699;}
	.st3{fill:#64B7DB;}
</style>
<sodipodi:namedview  bordercolor="#666666" borderopacity="1" gridtolerance="10" guidetolerance="10" id="namedview3153" inkscape:current-layer="g12" inkscape:cx="216.92184" inkscape:cy="83.0625" inkscape:pageopacity="0" inkscape:pageshadow="2" inkscape:window-height="752" inkscape:window-maximized="1" inkscape:window-width="1280" inkscape:window-x="0" inkscape:window-y="0" inkscape:zoom="1.3801092" objecttolerance="10" pagecolor="#ffffff" showgrid="false">
	</sodipodi:namedview>
<g id="g10" transform="matrix(1.25,0,0,-1.25,0,166.125)">
	<g id="g12" transform="scale(0.1,0.1)">
		<path id="path14" inkscape:connector-curvature="0" class="st0" d="M566.22,1182.17l-149.57,146.79H149.7L0,1182.18V525.9
			l90,42.61v575.88l96.46,94.58h193.39l96.36-94.57V933.76l90-0.57L566.22,1182.17"/>
		<path id="path16" inkscape:connector-curvature="0" class="st1" d="M0,525.9l174.71-143.18H407.3l158.91,144.59v285.23H475.8
			l0.41-245.44l-103.73-94.38H206.87L90,568.5L0,525.9"/>
		<path id="path18" inkscape:connector-curvature="0" class="st2" d="M218.68,1166.46V545.22l46.91,63.4v517.02h40V933.27l48.12,0.5
			v232.7L218.68,1166.46"/>
		<path id="path20" inkscape:connector-curvature="0" class="st3" d="M218.68,545.22h135.03l-0.41,267.32h-47.71v-204.4h-40
			L218.68,545.22"/>
		<path id="path22" inkscape:connector-curvature="0" class="st2" d="M893.17,1136.7h-93.12v81.23H758.8V958.56h41.25v99.22h93.12
			V940.62l-63.05-60.18h-98.57l-68.38,60.18v295.26l62.59,60.18h104.36l63.05-60.18V1136.7"/>
		<path id="path24" inkscape:connector-curvature="0" class="st2" d="M1162.65,940.62l-62.01-60.18H993.27l-63.75,60.18v355.44
			h95.63v-337.5h41.87v337.5h95.63V940.62"/>
		<path id="path26" inkscape:connector-curvature="0" class="st2" d="M1438.68,880.44h-79.47l-61.88,202.3h-1.15v-202.3h-89.9
			v415.62h80.04l61.3-199.99h1.16v199.99h89.9L1438.68,880.44"/>
		<path id="path28" inkscape:connector-curvature="0" class="st2" d="M1714.75,880.44h-79.45l-61.89,202.3h-1.16v-202.3h-89.89
			v415.62h80.03l61.31-199.99h1.16v199.99h89.89L1714.75,880.44"/>
		<path id="path30" inkscape:connector-curvature="0" class="st2" d="M1762.76,880.44h95.62v415.62h-95.62V880.44z"/>
		<path id="path32" inkscape:connector-curvature="0" class="st2" d="M2139.31,880.44h-79.46l-61.88,202.3h-1.16v-202.3h-89.9
			v415.62h80.04l61.31-199.99h1.15v199.99h89.9L2139.31,880.44"/>
		<path id="path34" inkscape:connector-curvature="0" class="st2" d="M2411.07,1140.22h-95.63v77.71h-44.37V958.56h44.37v60.62
			h-23.94v78.13h119.57V940.62l-63.18-60.18h-105.8l-66.65,60.18v295.26l63.75,60.18h106.97l64.91-60.18L2411.07,1140.22"/>
		<path id="path36" inkscape:connector-curvature="0" class="st2" d="M2679.29,880.44h-95.62v168.74h-40V880.44h-95.63v415.62h95.63
			v-168.75h40v168.75h95.62V880.44"/>
		<path id="path38" inkscape:connector-curvature="0" class="st2" d="M2843.15,1035.43h-41.76l14.5,172.5h9.28L2843.15,1035.43z
			 M2890.13,1296.06h-138.62l-58.58-415.62h93.38l8.12,76.87h55.68l8.12-76.87h93.96L2890.13,1296.06"/>
		<path id="path40" inkscape:connector-curvature="0" class="st2" d="M3265.4,880.44h-87.5v263.74h-4.07l-40.08-263.74h-35.45
			l-40.08,263.74h-4.07V880.44h-87.5v415.62h112.48l33.7-201.15h8.72l31.37,201.15h112.48L3265.4,880.44"/>
		<path id="path42" inkscape:connector-curvature="0" class="st1" d="M893.17,653.15h-93.12v81.24H758.8V475.01h41.25v99.22h93.12
			V457.07l-63.05-60.18h-98.57l-68.38,60.18v295.25l62.59,60.19h104.36l63.05-60.19V653.15"/>
		<path id="path44" inkscape:connector-curvature="0" class="st1" d="M1048.2,551.89h-41.76l14.5,172.5h9.28L1048.2,551.89z
			 M1095.18,812.51H956.56l-58.58-415.62h93.38l8.12,76.88h55.68l8.12-76.88h93.96L1095.18,812.51"/>
		<path id="path46" inkscape:connector-curvature="0" class="st1" d="M1308.57,734.39v-93.12h-40v93.12H1308.57z M1401.07,752.32
			l-64.17,60.19h-163.95V396.89h95.62v166.25h40V396.89h92.5v166.25l-47.98,40.51l47.98,39.93V752.32"/>
		<path id="path48" inkscape:connector-curvature="0" class="st1" d="M1703.38,653.15h-93.12v81.24h-41.25V475.01h41.25v99.22h93.12
			V457.07l-63.04-60.18h-98.57l-68.39,60.18v295.25l62.59,60.19h104.37l63.04-60.19V653.15"/>
		<path id="path50" inkscape:connector-curvature="0" class="st1" d="M1908.48,734.39h-80.62v-78.12h67.86v-78.12h-67.86V475.01
			h82.94v-78.12h-178.57v415.62h176.25V734.39"/>
		<path id="path52" inkscape:connector-curvature="0" class="st1" d="M2171.78,396.89h-79.46l-61.88,202.3h-1.16v-202.3h-89.9
			v415.62h80.04l61.31-199.99h1.15v199.99h89.9L2171.78,396.89"/>
		<path id="path54" inkscape:connector-curvature="0" class="st1" d="M2386.5,734.39h-53.94v-337.5h-95.63v337.5H2183v78.12h203.5
			L2386.5,734.39"/>
		<path id="path56" inkscape:connector-curvature="0" class="st1" d="M2537.43,734.39v-93.12h-40v93.12H2537.43z M2629.93,752.32
			l-64.17,60.19H2401.8V396.89h95.63v166.25h40V396.89h92.5v166.25l-47.98,40.51l47.98,39.93V752.32"/>
		<path id="path58" inkscape:connector-curvature="0" class="st1" d="M2850.38,734.39h-80.62v-78.12h67.86v-78.12h-67.86V475.01
			h82.94v-78.12h-178.57v415.62h176.25L2850.38,734.39"/>
		<path id="path60" inkscape:connector-curvature="0" class="st0" d="M3025.12,763.3h-37.09v-40.93h31.01v-41.25h-31.01v-53.44
			h39.22v-41.25h-93.28v218.12h91.15L3025.12,763.3"/>
		<path id="path62" inkscape:connector-curvature="0" class="st0" d="M3160.29,733.58h-52.58v29.72h-10.94v-44.12l32.52-3.05
			l34.04-30.75v-68.61l-31.61-30.33h-58.64l-31.9,30.33v40.35h55.59v-29.44h10.94v44.91l-30.69,2.73l-34.31,30.45v68.15l30.37,30.63
			h56.21l31-30.63L3160.29,733.58"/>
		<path id="path64" inkscape:connector-curvature="0" class="st0" d="M3280.86,763.3h-25.23V586.43H3200V763.3h-26.75v41.25h107.61
			L3280.86,763.3"/>
		<path id="path66" inkscape:connector-curvature="0" class="st0" d="M2983.97,392.93h-38.06v120.65h-10.41v20.24l28.71,8.17h19.76
			V392.93"/>
		<path id="path68" inkscape:connector-curvature="0" class="st0" d="M3043.93,479.78h-7.53v33.81h7.53
			C3043.93,513.58,3043.93,479.78,3043.93,479.78z M3082,520.89l-21.85,21.07h-40.03l-20.6-21.07v-53.21l18.55-16.27h25.86v-30.06
			h-7.53v19.35h-36.88v-26.86l20.6-20.87h40.03l21.85,20.87L3082,520.89"/>
		<path id="path70" inkscape:connector-curvature="0" class="st0" d="M3141.77,481.96h-7.19v31.62h7.19
			C3141.77,513.58,3141.77,481.96,3141.77,481.96z M3176.45,520.89l-22.01,21.07h-34.61l-19.94-21.07V483.2l14.9-13.76l-17.4-14.61
			v-41.01l21.34-20.87h39.72l20.5,20.87v41.01l-17.87,14.61l15.37,13.76V520.89z M3142.08,421.34h-7.81v32.25h7.81V421.34"/>
		<path id="path72" inkscape:connector-curvature="0" class="st0" d="M3272.96,485.07l-18.85-16.67l18.85-16.05v-38.52l-21.34-20.87
			h-39.19l-20.72,20.87v27.77h36.88v-20.26h7.5v32.87h-15.17v28.38h15.17v31h-7.5v-18.8h-35.84v26.11l19.68,21.07h39.19l21.34-21.07
			L3272.96,485.07"/>
		<path id="path74" inkscape:connector-curvature="0" class="st2" d="M665.92,183.84c0,0-23.04-3.46-37.01-19.15
			c-13.98-15.69-21.95-30.12-19.99-41.13c1.96-11,5.62-18.99,17.57-22.97c14.82-4.94,33.79-0.64,47.09,6.96
			c13.3,7.6,6.85,17.41,6.85,17.41s-40.57-6.19-46.26-2.39c-1.09,1.97-0.94,10.54,9.26,20.03c9.3,8.66,31.84,22.46,35.88,22.12
			c4.04-0.34,10.81-5.6,13.79-4.47c2.98,1.13,4.16,9.24,3.57,11.23c-0.59,1.99-4.92,9.38-12.07,11.6
			C677.45,185.32,665.92,183.84,665.92,183.84"/>
		<path id="path76" inkscape:connector-curvature="0" class="st2" d="M721.45,168.97c-10.4-4.46-17.11-12.79-15.8-20.3
			c1.31-7.51,4.34-19.98,14.65-25.61c10.31-5.62,25.12-10.56,40.72-9.93c15.59,0.64,25.59,2.56,29.96,6.76
			c4.37,4.21,7.66,9.89,5.09,11.29c-2.58,1.41-52.53,2.9-61.95,11.58c-4.75,5.35,23.3,9.52,26.68,13.18
			c1.93,2.09,2.28,6.69,1.1,10.12c-1.72,4.97-14.38,6.47-20.9,5.7C734.47,171.01,721.45,168.97,721.45,168.97"/>
		<path id="path78" inkscape:connector-curvature="0" class="st2" d="M598.38,153.37c-2.55,0.9-15.62-0.13-26.22,0.44
			c-10.6,0.57-17.31,4.33-17.31,4.33s5.38,16.35,9.39,29.11c4.02,12.76,6.3,18.4,16.27,46.02c9.96,27.62,14.07,50.46,12.15,60.46
			c-1.92,10-10.26,16.71-15.33,17.52c0,0-7.55-0.31-8.99-1.88c-1.45-1.57-13.49-15.16-22.1-26.6c-8.6-11.44-27.7-37.41-29.13-39.49
			c-1.43-2.07-3.96-1.68-5.95-2.26c-1.99-0.59-4.28-6.22-5.52-12.82c-1.24-6.6-16.36-31.41-22.39-44.25
			c-6.03-12.84-27.08-65.1-27.48-67.64c-0.4-2.54-1.16-8.61,1.58-14.04c2.74-5.43,13.79-4.48,16.68-1.34
			c2.89,3.14,29.13,64.18,29.13,64.18s7.41-8.77,11.64-13.64c4.23-4.87,11.54-11.12,11.54-11.12s-0.38-3.04-1.27-6.1
			c-0.88-3.06-2.04-11.67-3.62-22.32c-1.58-10.65-9.27-56.82-11.84-68.01c-2.57-11.2-7.77-22.29-4.4-27.9
			c3.24-5.41,15.95,4.18,20.49,16.46c3.21,8.68,8.79,31.61,12.16,47.87c3.37,16.26,11.07,49.84,12.02,51.39
			c0.95,1.55,3.52,0.15,8.11-1.18c4.59-1.33,16.72-2.34,32.68,1.84c15.95,4.18,13.22,9.61,14.62,12.19
			C606.69,147.15,600.93,152.46,598.38,153.37z M542.61,204.76c-3.54-11.99-10-32.91-10-32.91s-4.59,7.38-8.74,10.48
			c-4.16,3.11-10.23,3.61-10.23,3.61s8.63,16.98,16.39,30.65c7.76,13.67,28.32,40.97,28.32,40.97s0.32-1.75-0.09-4.04
			C557.85,251.24,546.15,216.75,542.61,204.76"/>
		<path id="path80" inkscape:connector-curvature="0" class="st2" d="M832.46,171.73c-5.52-0.73-10.38-4.96-9.55-12.99
			c0.83-8.03,1.89-21.59,7.67-27.4c5.78-5.81,15.67-13.47,28.39-16.48c12.72-3.01,24.39-5.05,32.2,1.31
			c7.8,6.37,9.15,10.45,5.97,14.35c-3.18,3.9,0.32,4.55-6.68,3.25c-7-1.29-15.11-0.11-22.3,3.12c-7.18,3.24-17.83,4.82-19.55,9.79
			c-1.72,4.97-1.72,17.57-4.87,20.46C840.59,170.05,832.46,171.73,832.46,171.73"/>
		<path id="path82" inkscape:connector-curvature="0" class="st2" d="M1008.93,256.03c-3.65,2.88-9.85,6.65-15.78,3.89
			c-5.93-2.76-10.25-20.57-12.92-29.25s-9.39-41.71-10.55-50.32c-1.16-8.61-1.59-22.74-3.54-24.33c-1.95-1.59-4.41,9.39-12.69,14.6
			c-8.27,5.21-24.45,6.56-24.45,6.56c-2.85-4.15-5.27-6.77-7.7-8.88c-2.44-2.11-5.4-3.75-6.76-7.33
			c-1.37-3.58-7.47-27.01-4.24-31.92c3.22-4.91,9.29-17.76,26.52-20.08c17.23-2.32,30.06,4.25,30.06,4.25l11.46-9.11
			c0,0,4.05-0.33,5.96,2.26c1.91,2.59,3.22,19.78,4.89,28.42c1.66,8.63,7.02,38.08,8.6,48.73c1.58,10.65,14.19,47.44,15.41,54.55
			C1014.41,245.17,1012.57,253.15,1008.93,256.03L1008.93,256.03z M949.69,139.22c-0.42-2.04-3.04,0.38-5.13,2.31
			c-2.09,1.93-1.73,5.47-1.73,5.47s2.52,0.1,4.07-0.84C948.44,145.22,950.11,141.25,949.69,139.22"/>
		<path id="path84" inkscape:connector-curvature="0" class="st2" d="M850.95,200.2c0,0,2.4-9.48,7.52-11.29
			c5.11-1.8,8.28-5.21,12.24-3.53c3.97,1.67,3.72,7.71,3.53,12.24c-0.18,4.53-1.07,14.07-6.19,15.87
			c-5.11,1.81-10.15,1.61-13.54-1.56C851.1,208.77,850.95,200.2,850.95,200.2"/>
		<path id="path86" inkscape:connector-curvature="0" class="st2" d="M1032.21,154.68c0,0-4.09,1.35-7.05-0.29
			c-2.95-1.63-7.72-8.38-7.05-12.38s0.91-10.04,8.1-13.28c7.19-3.23,13.29-4.5,16.31-4.37c3.01,0.12,6.03,0.24,6.03,0.24
			s8.36-7.21,19.41-6.26c11.04,0.96,12.03,1.5,18.83,7.82c6.79,6.32,10.19,9.48,10.19,9.48s14.75-15.52,22.27-14.71
			c7.53,0.81,22.93,18.57,25.95,18.7c3.01,0.12,14.03-10.52,17.62-11.88c3.58-1.37,7.24-4.75,10.77-4.6
			c3.52,0.14,4.04-0.34,4.04-0.34l3.85-7.91l3.97,1.68c0,0,1.04-0.96,5.07-0.8c4.02,0.16,8.75,7.91,8.75,7.91s6.83,5.32,10.99,14.56
			s19.67,49.18,19.67,49.18s1.01-12.56,7.68-15.31c6.66-2.75,10.66-2.09,17.66-0.79c7.01,1.3,27.57,3.64,32.48,6.87
			c4.91,3.22,8.27,7.39,7.47,14.41c-0.79,7.02-5.31,6.84-12.42,8.06c-7.1,1.22-25.7-0.04-36.73-1.5c-11.02-1.46-13.92-4.6-13.92-4.6
			s6.37,16.89,10.13,23.59c3.76,6.71,16.28,20.82,18.49,28.47c2.21,7.65,1.82,17.21-3.92,22.01s-12.26,4.04-14.76,3.43
			c-2.49-0.61-21.47-29.6-27.96-43.47c-6.49-13.87-18.07-51.13-19.31-57.73c-1.24-6.6-2.86-16.24-6.32-17.9
			c-3.46-1.65-12.36-6.05-16.48-3.7c-4.13,2.35-13.88,19.09-22.52,20.75c-8.63,1.66-16.1-0.66-22.45-5.45
			c-6.36-4.8-7.28-6.85-7.28-6.85s-4.9,8.87-8.55,11.75c-3.64,2.88-11.27,4.58-15.25,3.41c-3.99-1.17-16.33-19.81-16.33-19.81
			s-2.85,20.54-9.64,26.31c-6.79,5.77-20.07,10.27-28.38,3.88C1029.86,175.25,1032.21,154.68,1032.21,154.68"/>
		<path id="path88" inkscape:connector-curvature="0" class="st2" d="M1476.16,216.63c21.18,24.55,46.24,64.88,49.5,83.66
			c3.27,18.78,2.59,35.38-6.31,43.59s-10.53,11.16-16.95,7.88c-6.42-3.29-28.24-11.73-64.08-72.16
			c-35.83-60.42-63.39-126.05-67.61-133.78c-4.22-7.73-9.32-18.52-9.32-18.52s2.1-14.53,3.65-15.47c1.55-0.94,5.21-4.32,11.19-2.57
			c5.98,1.76,29.06,28.9,32.84,35.11c3.77,6.2,13.06,25.73,15.57,25.83c2.52,0.1,16.88-18.46,23.18-24.75
			c6.31-6.29,33.21-23.34,47.34-23.77c14.13-0.43,23.29,9.52,23.29,9.52s-0.29,7.05-3.47,10.95c-3.18,3.9-6.78,5.77-6.78,5.77
			s-5.41-3.24-10.51-1.94c-5.09,1.3-23.89,5.07-36.05,19.19c-12.13,14.07-16.52,22-16.52,22S1454.99,192.08,1476.16,216.63z
			 M1462.84,246.83c-0.71,5.01-7.39,8.26-7.39,8.26s9.86,17.54,17.4,30.45c7.54,12.9,25.11,26.72,25.11,26.72
			s-7.44-27.52-17.37-43.54S1463.55,241.82,1462.84,246.83"/>
		<path id="path90" inkscape:connector-curvature="0" class="st2" d="M1718.04,216.92c-4.9,8.87-9.33,18.77-21.39,17.77
			c-12.05-0.99-29.46-18.84-29.46-18.84s-10.65,1.58-13.59-0.55c-2.93-2.14-14.18-35.35-22.53-40.73
			c-8.34-5.38-21.36-7.43-31.45-7.33c-10.08,0.09-7.12,1.73-7.12,1.73s20.76,9.92,27.71,24.82c6.95,14.9-12.56,36.27-21.64,36.41
			c-9.07,0.13-30.5-5.78-39.17-15.71c-8.67-9.93-8.29-31.58-8.29-31.58s-1.88-3.1-4.52-0.18c-2.64,2.91-8.44,9.23-12.85,6.03
			c-4.4-3.2-9.51-14-4.63-22.36s10.11-13.19,18.65-12.34c8.53,0.85,13.5,2.57,13.5,2.57s14.6-12,24.76-14.11
			c10.17-2.1,28.24-0.36,28.24-0.36s-30.54-91.45-32.33-97.07c-1.79-5.61-2.3-17.73-0.66-20.69c1.62-2.96,11.59-0.03,12.49,2.52
			c0.9,2.56,11.78,20.14,13.6,24.75c1.83,4.61,7.23,20.45,27.71,62.11c20.47,41.65,41.32,74.25,41.32,74.25s9.59,11.98,11.18,10.03
			c1.59-1.95-7.82-18.46-11.24-21.12c-3.42-2.66-6.27-6.8-6.27-6.8s-2.49-13.2,1.71-17.07c4.18-3.86,7.3-6.25,14.77-3.93
			c7.46,2.32,19.47,16.92,23.64,25.66C1714.36,183.51,1722.94,208.05,1718.04,216.92L1718.04,216.92z M1585.32,196.89
			c-2-0.59-6.48-1.77-6.48-1.77s2.28,5.64,5.26,6.77c2.98,1.13,6.99,1.8,6.99,1.8S1587.31,197.48,1585.32,196.89"/>
		<path id="path92" inkscape:connector-curvature="0" class="st2" d="M1985.85,248.5c-10.54-0.94-26.61-14.69-34.37-22.06
			c-7.77-7.38-22.73-23.6-22.73-23.6s-5.2,8.09-10.99,10.13c-12.78,4.52-18.76,2.76-30.8-10.83
			c-12.05-13.59-18.76-21.93-18.76-21.93s-3.73,4.89-7.89,20.34c-1.58,5.88-11.5,10.12-18.4,6.3c-6.89-3.81-9.38-17.01-14.71-22.27
			c-5.33-5.26-9.59-11.98-14.99-3.13c-5.4,8.85-4.42,21.99-4.42,21.99s-0.25,6.04-4.94,9.88c-4.69,3.84-9.66,2.12-9.66,2.12
			s-4.88,8.37-8.63,13.76c-3.75,5.39-10.89,7.62-10.89,7.62c-5.54-0.23-22.96-5.47-26.63-14.19c-3.68-8.71-8.74-20.51-7.81-31.06
			c0.94-10.54,6.52-23.92,9.14-26.34c2.61-2.41,12.94-8.54,20.47-7.73c7.53,0.81,21.25,10.44,24.3,9.56
			c3.06-0.88,4.24-4.87,6.81-6.27c2.58-1.41,13.41-7.52,20.47-7.74c7.06-0.21,11.96,3.51,14.89,5.65c2.94,2.14,8.21,8.9,9.71,8.96
			c1.52,0.06,5.91-8.83,9.49-10.19c3.58-1.36,8.28-5.2,13.81-4.98c5.54,0.23,7.57-0.19,13.94,4.1c6.38,4.29,25.56,28.25,25.56,28.25
			s3.15-15.49,4.8-18.95c1.66-3.46,6.03-11.85,13.03-10.55s13.74,9.12,21.86,20.04s21.05,27.57,30.85,34.52
			c9.79,6.95,19.59,13.9,21.39,19.02C2001.56,234.02,1998.93,249.66,1985.85,248.5z M1771.61,200.96c-1.83-4.61-6.89-4.31-6.89-4.31
			s0.32,4.55,1.21,7.61c0.88,3.06,5.32,5.26,5.32,5.26S1773.43,205.57,1771.61,200.96"/>
		<path id="path94" inkscape:connector-curvature="0" class="st2" d="M1855.03,268.36c0,0-7.26-7.35-6.53-12.86
			c0.73-5.52,0.99-12.05,3.05-12.98c2.05-0.92,7.2-3.74,12.24-3.53c5.03,0.21,13.94,4.1,15.87,6.19c1.93,2.09,3.72,7.71,2.5,12.7
			c-1.21,4.99-4.81,6.86-7.89,8.25s-11.19,2.57-13.23,2.99C1859.01,269.54,1855.03,268.36,1855.03,268.36"/>
		<path id="path96" inkscape:connector-curvature="0" class="st2" d="M2246.21,339.25c-3.73,4.89-11.68,14.64-42.77,10.85
			c-31.09-3.79-49.23-40.81-53.25-53.57c-4.01-12.76-3.24-43.98-4.48-63.18c-1.23-19.2-12.64-23.7-12.64-23.7
			s-7.89,8.25-12.54,11.08c-4.65,2.84-11.1,12.65-23.74,13.65s-24.38-20.15-26.71-24.78c-2.33-4.63-1.41-14.67,8.22-28.39
			c9.63-13.72,37.46-16.61,62.04-1.5c24.58,15.11,28.98,30.91,30.64,64.24s1.27,42.89,13.59,62.04
			c12.33,19.15,24.04,16.1,24.04,16.1s0.27-6.54,4.02-11.93c3.75-5.39,10.99-10.13,25.04-8.55c14.04,1.58,17.2,10.78,18.06,14.34
			C2256.59,319.51,2249.94,334.36,2246.21,339.25L2246.21,339.25z M2101.93,194.78c-8.61,1.16-9.28,5.16-7.85,7.24
			c1.42,2.07,6.86,4.82,6.86,4.82l12.96-9.05C2113.9,197.79,2110.55,193.62,2101.93,194.78"/>
		<path id="path98" inkscape:connector-curvature="0" class="st2" d="M2233.77,261.13c-5.51-0.73-18.5-15.87-23.24-23.12
			c-4.74-7.25-28.1-39.95-51.64-80.72c-23.53-40.77-45.09-105.14-47.87-111.3c-2.77-6.16-12.44-40.82-13.26-45.39
			c-0.83-4.57,0.85-8.53,10.1-0.6c9.25,7.94,21.32,33.12,31.09,53.17c9.76,20.05,42.21,89.41,64.65,120.06
			c22.43,30.65,34.39,46.25,34.39,46.25s4.95,2.21,6.5,1.27c1.55-0.95-5.73-7.79-6.61-10.86c-0.88-3.06-3.05-11.71,1.66-16.06
			c4.72-4.34,10.96-9.12,14.42-7.47c3.46,1.65,17.03,14.8,17.03,14.8s10.21-3.11,16.73-2.34c6.52,0.77,30.32,10.31,32.39,8.88
			c2.07-1.43,5.55-12.38,7.05-12.31c1.52,0.06,15.36-5.93,19.43-6.76c4.07-0.84,16.22-2.36,21.7-0.62
			c5.47,1.73,14.74,9.16,14.74,9.16l-1.78,6.48c0,0,2.37,3.62-1.27,6.5c-3.64,2.88-10.06-0.41-17.67,0.79
			c-7.61,1.2-13.71,2.46-16.31,4.38c-2.59,1.91-1.65,3.46-1.65,3.46s10.32,6.47,13.31,19.69c2.99,13.23-1.61,27.15-3.75,30.08
			c-2.13,2.94-10.32,6.13-12.34,6.05c-2.01-0.08-9.92-3.93-16.65-11.77c-6.74-7.84-10.29-19.57-10.17-22.59
			c0.13-3.02-0.78-5.57-0.78-5.57s-6.4-3.79-17.38-6.25c-10.99-2.46-13.52-2.07-13.52-2.07s-0.81,7.53-2.07,13.52
			c-1.25,6-2.96,10.96-10.67,14.68c-7.71,3.72-22.66-0.42-22.66-0.42s-4.72,4.34-6.79,5.77
			C2238.8,261.34,2233.77,261.13,2233.77,261.13"/>
		<path id="path100" inkscape:connector-curvature="0" class="st2" d="M2434.37,248.15c5.11-1.81,9-10.72,6.21-16.38
			c-2.79-5.66-6.8-6.32-9.78-7.45c-2.98-1.13-7.4-3.83-7.4-3.83s-3.9-3.18-3.34-4.67c0.57-1.49,11.28-4.58,23.9-5.07
			c12.61-0.5,26.24-0.95,26.24-0.95s10.16-2.11,11.77-4.56c1.62-2.46-1.83-4.61-8.7-8.93c-6.88-4.31-12.17-10.57-30.81-10.83
			c-18.63-0.26-25.25,1.49-34.51,6.15c-9.26,4.66-15.65,12.96-15.6,24.05c0.05,11.09,6.14,22.42,12.54,26.21
			c6.4,3.79,19.33,7.84,22.88,7.49C2431.31,249.03,2434.37,248.15,2434.37,248.15"/>
		<path id="path102" inkscape:connector-curvature="0" class="st2" d="M2489.15,239.3c4.95,2.22,12.1-0.01,14.25-3.45
			c2.16-3.44,5.31-18.93,12.52-22.67c7.2-3.74,15.8-4.4,20.87-5.2c5.07-0.8,10.19-2.61,10.37-7.14c0.18-4.53-3.87-16.29-13.37-18.18
			c-9.49-1.9-24.81,3.02-30.53,7.32c-5.72,4.3-16.86,17.96-18.8,28.46s-2.61,14.51-0.19,17.12
			C2486.68,238.19,2489.15,239.3,2489.15,239.3"/>
		<path id="path104" inkscape:connector-curvature="0" class="st2" d="M2510.85,291.14c7,1.29,13.72-2.97,14.94-7.96
			c1.21-4.99,1.12-15.07-1.82-17.21c-2.94-2.14-5.29-6.26-7.85-5.36c-2.55,0.9-4.67,3.34-4.67,3.34s-2.97-1.13-5.05,0.3
			c-2.07,1.43-4.36,10.68-4.16,15.45C2502.5,285.76,2510.85,291.14,2510.85,291.14"/>
		<path id="path106" inkscape:connector-curvature="0" class="st2" d="M2585.43,238.69c0,0,3.8,5.7,0.01,12.09
			c-3.79,6.4-15.53,9.95-23.98,7.09c-8.44-2.86-18.56-14.36-18.15-24.43c0.41-10.06,3.57-25.55,12.84-30.72
			c9.29-5.16,15.45-7.94,15.45-7.94s13.44,4.08,15.33,7.18c1.88,3.1,3.31,5.18,3.31,5.18s15.32-4.92,28.86-3.36
			c13.54,1.56,23.88,7.53,23.88,7.53l9.78-17.24c0,0,4.63-2.33,6.76-5.26c2.14-2.94,8.7-3.17,12.18-2.02
			c3.48,1.15,4.78,6.24,4.68,8.76c-0.1,2.52-0.7,5.01-0.7,5.01s-11.99,9.59-10.25,28.81c1.74,19.22,7.63,22.99,11.27,44.81
			c3.65,21.82,7.31,31.04,10.94,40.76s8.95,15.48,10.77,20.09c1.83,4.61,0.77,18.17-7.95,21.85c-8.71,3.68-20.92-5.89-35.44-45.29
			c-14.52-39.39-12.01-51.39-12.69-59.48c-0.68-8.09-2.59-10.69-2.59-10.69s-4.74-7.25-10.7-9.51c-5.95-2.26-20.48-4.36-31.21-0.77
			C2587.1,234.72,2585.43,238.69,2585.43,238.69"/>
		<path id="path108" inkscape:connector-curvature="0" class="st2" d="M2715.63,246.52c-7.99-1.84-11.44-16.09-2.78-30.85
			c8.67-14.77,23.42-18.2,33.69-22.82c10.26-4.62,27.13,2.12,32.9,8.9c5.77,6.79,11.16,10.54,11.16,10.54s-0.98-13.14,0.65-16.1
			c1.64-2.96,11-10.13,15.46-8.44c4.47,1.69,8.43,3.37,14.52,14.7c6.09,11.33,10.34,30.66,8.67,34.62
			c-1.67,3.96-4.18,15.96-9.83,18.75c-5.66,2.79-10.73,3.59-13.75,3.47c-3.02-0.12-12.44-4.03-16.8-8.24s-14.15-23.76-18.53-27.46
			c-4.39-3.71-4.22-7.73-14.37-6.13c-10.14,1.6-18.4,6.3-21.6,10.71c-5.03,6.92-4.04,12.43-7.15,14.82
			C2724.75,245.38,2715.63,246.52,2715.63,246.52"/>
		<path id="path110" inkscape:connector-curvature="0" class="st2" d="M2907.27,307.88c4.51,11.52-3.56,22.89-9.7,24.55
			c-13.37,3.61-14.68-1.36-21.89-19.41c-10.24-25.7-23.14-62.55-23.14-62.55c-4.59-6.36-8.04-17.71,0.63-32.48
			c8.66-14.76,23.42-18.19,33.68-22.81c10.27-4.62,24.51,3.14,30.27,9.93c5.77,6.79,15.68,14.25,15.68,14.25s-5.53-28.19-3.9-31.15
			c1.64-2.96,11-10.13,15.46-8.44c4.47,1.69,8.43,3.37,14.52,14.7c6.09,11.34,10.34,30.66,8.67,34.62
			c-1.67,3.96-1.2,18.6-6.86,21.39c-5.65,2.79-10.73,3.59-13.74,3.47c-3.02-0.12-15.83-2.66-20.2-6.87
			c-4.36-4.21-14.48-15.59-18.86-19.29c-4.39-3.71-8.81-9.56-18.96-7.95c-10.14,1.6-11.86,5.49-13.59,10.66
			c-1.8,5.34,9.84,25.85,10.69,32.69C2886.13,263.93,2899.73,288.67,2907.27,307.88"/>
		<path id="path112" inkscape:connector-curvature="0" class="st2" d="M2795.46,303.19c-5.39-3.74-8.65-10.43-7.44-15.42
			c1.21-4.99,0.89-9.54,5-11.39c4.11-1.85,16.28-3.87,18.8-3.77c2.52,0.1,4.43,2.7,6.94,2.8c2.52,0.1,6.42,3.29,5.79,6.28
			c-0.62,3-0.81,7.53-3.44,10.44c-2.65,2.92-10.98,9.63-15.09,11.48C2801.91,305.47,2795.46,303.19,2795.46,303.19"/>
		<path id="path114" inkscape:connector-curvature="0" class="st2" d="M2943.8,283.1c13.03,0.34,22.78-2.47,28.65-2.8
			c5.87-0.33,10.78-0.12,13.34-2.67c2.56-2.54,4.55-9.64,2.64-13.69c-1.92-4.05-3.15-6.17-7.25-7.66c-4.1-1.49-9.36-2.08-15.39-2.52
			c-6.03-0.43-14.02,0.94-26.81-0.71c-12.78-1.66-25.58-7.66-27.3-7.16s-10.66,2.02-13.22,9.1c-2.55,7.08-1.06,12.05,1.11,14.41
			c2.18,2.36,20.69,11.8,27.09,12.44C2933.05,282.47,2943.8,283.1,2943.8,283.1"/>
	</g>
</g>
</svg>
